<?xml version="1.0" encoding="UTF-8"?>
<svg id="Layer_3" data-name="Layer 3" xmlns="http://www.w3.org/2000/svg" viewBox="0 0 1000 1000">
  <defs>
    <style>
      .cls-1 {
        fill: #fff;
        stroke-width: 0px;
      }
    </style>
  </defs>
  <rect class="cls-1" x="343.8328013701" y="88.113907758" width="43.5294117647" height="43.5294117706"/>
  <rect class="cls-1" x="395.8328013701" y="98.2315548168" width="205.5294117647" height="16.4705882353"/>
  <rect class="cls-1" x="610.6563307818" y="88.113907758" width="43.5294117647" height="43.5294117706"/>
  <rect class="cls-1" x="624.5975072524" y="139.5256724639" width="16.9411764706" height="723.4117647059" transform="translate(1266.1361909754 1002.4631096337) rotate(180)"/>
  <rect class="cls-1" x="610.244566076" y="870.8197901051" width="43.5294117647" height="43.5294117706" transform="translate(1264.0185439166 1785.1689919808) rotate(180)"/>
  <rect class="cls-1" x="396.244566076" y="887.7609665815" width="205.5294117647" height="16.4705882353" transform="translate(998.0185439166 1791.9925213984) rotate(180)"/>
  <rect class="cls-1" x="343.4210366642" y="870.8197901051" width="43.5294117647" height="43.5294117706" transform="translate(730.3714850931 1785.1689919808) rotate(180)"/>
  <polygon class="cls-1" points="434.6366741133 207.0272253858 520.7459752238 207.4445005534 433.0951878737 315.7058153014 432.3916248995 349.6098467765 574.5092719583 349.6098467765 574.744566076 313.4999995227 492.1581557544 313.607528704 577.2151543112 205.264705405 577.2151543112 171.6176465815 434.8622131348 171.6176465815 434.6366741133 207.0272253858"/>
  <polygon class="cls-1" points="432.3916248995 373.6176465815 432.3916248995 582.2058818756 570.1563307818 582.2058818756 569.8033896054 540.9117642285 479.4667153272 540.8094388664 479.8033896054 494.3235289344 558.8637791058 493.9981775362 558.8458715644 454.1708851198 479.4504484289 455.1470583462 479.8020114539 412.8008649857 573.3314024614 413.1592236526 572.9798601936 373.6176465815 432.3916248995 373.6176465815"/>
  <rect class="cls-1" x="357.1269190171" y="139.5256724639" width="16.9411764706" height="723.4117647059"/>
  <path class="cls-1" d="M564.9475044783,608.3235289344c-7.0588235294-4.7058823529-131.755710606-29.5991937221-134.5882352941,54.1176470588-2.1176470588,62.5882352941,50.4921647846,62.3183359566,74.5201398064,72,54.8916248995,22.1176470588,11.6186624325,47.4010467845,0,46.5882352941-53.8142574535-3.7647058824-76.6377868652-21.6470588235-76.6377868652-21.6470588235l2.1176470588,48.9411764706s11.2941176471,15.0632031054,72.4705882353,15.0588235294c88.0023460761-.0063000196,85.6456562704-66.3514295609,85.6470588235-69.6470588235.0214291936-50.3529411765-52.3315040425-61.396668561-68.2352941176-65.8823529412-73.4117647059-20.7058823529-21.060894091-43.8259372555-1.4117647059-44.2352941176,22.5882352941-.4705882353,45.1764705882,8.9411764706,45.1764705882,8.9411764706"/>
</svg>